<svg aria-labelledby="D007-title D007-description" data-diagram-id="D007" preserveAspectRatio="xMidYMid meet" role="img" viewBox="0 0 1200 800" xmlns="http://www.w3.org/2000/svg"><title id="D007-title">Left-turning vehicle A has cyclist B beside it and pedestrian P at the crossing.</title><desc id="D007-description">Left-turning vehicle A has cyclist B beside it and pedestrian P at the crossing.</desc><rect data-primitive="canvas" fill="#dbe7eb" height="800" width="1200" x="0" y="0"/><g data-composition="intersection_movement" data-template="T02"><rect data-primitive="road-segment" fill="#53616a" height="800" rx="0" width="260" x="470" y="0"/><rect data-primitive="road-segment" fill="#53616a" height="260" rx="0" width="1200" x="0" y="270"/><line data-primitive="lane-boundary" stroke="#f7fafb" stroke-linecap="butt" stroke-width="7" x1="600" x2="600" y1="6" y2="264"/><line data-primitive="lane-boundary" stroke="#f7fafb" stroke-linecap="butt" stroke-width="7" x1="600" x2="600" y1="536" y2="794"/><line data-primitive="lane-boundary" stroke="#f7fafb" stroke-linecap="butt" stroke-width="7" x1="6" x2="464" y1="400" y2="400"/><line data-primitive="lane-boundary" stroke="#f7fafb" stroke-linecap="butt" stroke-width="7" x1="736" x2="1194" y1="400" y2="400"/><g data-orientation="horizontal" data-primitive="crosswalk" data-stripe-count="5"><rect fill="#f7fafb" height="9.028" width="260" x="470" y="535"/><rect fill="#f7fafb" height="9.028" width="260" x="470" y="548.993"/><rect fill="#f7fafb" height="9.028" width="260" x="470" y="562.986"/><rect fill="#f7fafb" height="9.028" width="260" x="470" y="576.979"/><rect fill="#f7fafb" height="9.028" width="260" x="470" y="590.972"/></g><g data-color="yellow" data-heading="north" data-primitive="vehicle"><g><rect fill="#e5b436" height="100" rx="11.52" stroke="#20282d" stroke-width="3" width="64" x="505" y="655"/><rect fill="#d8e8ed" height="20" rx="5.12" width="43.52" x="515.24" y="671"/></g><g data-primitive="label-badge"><circle cx="537" cy="705" fill="#315f78" r="23.04"/><text dominant-baseline="central" fill="#f7fbfc" font-family="system-ui, sans-serif" font-size="36.864" font-weight="700" text-anchor="middle" x="537" y="705">A</text></g></g><g data-heading="north" data-primitive="cyclist"><circle cx="450" cy="493.7" fill="none" r="15.3" stroke="#f7fafb" stroke-width="5"/><circle cx="450" cy="541.3" fill="none" r="15.3" stroke="#f7fafb" stroke-width="5"/><line stroke="#f7fafb" stroke-linecap="round" stroke-width="6" x1="450" x2="450" y1="493.7" y2="541.3"/><circle cx="450" cy="491.49" fill="#e5b436" r="9.945" stroke="#20282d" stroke-width="3"/><g data-primitive="label-badge"><circle cx="450" cy="553.2" fill="#315f78" r="23"/><text dominant-baseline="central" fill="#f7fbfc" font-family="system-ui, sans-serif" font-size="36.8" font-weight="700" text-anchor="middle" x="450" y="553.2">B</text></g></g><g data-heading="west" data-primitive="pedestrian"><circle cx="801" cy="510.7" fill="#e5b436" r="10.54" stroke="#20282d" stroke-width="3"/><line stroke="#f7fafb" stroke-linecap="round" stroke-width="8" x1="801" x2="801" y1="536" y2="565.9"/><path d="M 778.68 544 L 801 536 L 823.32 544" fill="none" stroke="#f7fafb" stroke-linecap="round" stroke-linejoin="round" stroke-width="7"/><path d="M 786.492 598.1 L 801 565.9 L 815.508 598.1" fill="none" stroke="#f7fafb" stroke-linecap="round" stroke-linejoin="round" stroke-width="8"/><g data-primitive="label-badge"><circle cx="832" cy="498" fill="#315f78" r="22"/><text dominant-baseline="central" fill="#f7fbfc" font-family="system-ui, sans-serif" font-size="35.2" font-weight="700" text-anchor="middle" x="832" y="498">P</text></g></g></g></svg>
