<svg aria-labelledby="D009-title D009-description" data-diagram-id="D009" preserveAspectRatio="xMidYMid meet" role="img" viewBox="0 0 1200 800" xmlns="http://www.w3.org/2000/svg"><title id="D009-title">Vehicle A approaches a pedestrian crossing and stop line ready to stop and yield.</title><desc id="D009-description">Vehicle A approaches a pedestrian crossing and stop line ready to stop and yield.</desc><rect data-primitive="canvas" fill="#dbe7eb" height="800" width="1200" x="0" y="0"/><g data-composition="crosswalk" data-template="T04"><rect data-primitive="road-segment" fill="#53616a" height="800" rx="0" width="340" x="430" y="0"/><line data-primitive="lane-boundary" stroke="#f7fafb" stroke-linecap="butt" stroke-width="7" x1="600" x2="600" y1="6" y2="794"/><g data-orientation="horizontal" data-primitive="crosswalk" data-stripe-count="6"><rect fill="#f7fafb" height="10.857" width="340" x="430" y="270"/><rect fill="#f7fafb" height="10.857" width="340" x="430" y="286.829"/><rect fill="#f7fafb" height="10.857" width="340" x="430" y="303.657"/><rect fill="#f7fafb" height="10.857" width="340" x="430" y="320.486"/><rect fill="#f7fafb" height="10.857" width="340" x="430" y="337.314"/><rect fill="#f7fafb" height="10.857" width="340" x="430" y="354.143"/></g><rect data-primitive="stop-line" fill="#f7fafb" height="12" width="170" x="430" y="420"/><g data-color="blue" data-heading="north" data-primitive="vehicle"><g><rect fill="#3f85a3" height="100" rx="11.52" stroke="#20282d" stroke-width="3" width="64" x="485" y="545"/><rect fill="#d8e8ed" height="20" rx="5.12" width="43.52" x="495.24" y="561"/></g><g data-primitive="label-badge"><circle cx="517" cy="595" fill="#315f78" r="23.04"/><text dominant-baseline="central" fill="#f7fbfc" font-family="system-ui, sans-serif" font-size="36.864" font-weight="700" text-anchor="middle" x="517" y="595">A</text></g></g><g data-heading="east" data-primitive="pedestrian"><circle cx="381" cy="265.7" fill="#e5b436" r="10.54" stroke="#20282d" stroke-width="3"/><line stroke="#f7fafb" stroke-linecap="round" stroke-width="8" x1="381" x2="381" y1="291" y2="320.9"/><path d="M 358.68 299 L 381 291 L 403.32 299" fill="none" stroke="#f7fafb" stroke-linecap="round" stroke-linejoin="round" stroke-width="7"/><path d="M 366.492 353.1 L 381 320.9 L 395.508 353.1" fill="none" stroke="#f7fafb" stroke-linecap="round" stroke-linejoin="round" stroke-width="8"/><g data-primitive="label-badge"><circle cx="412" cy="253" fill="#315f78" r="22"/><text dominant-baseline="central" fill="#f7fbfc" font-family="system-ui, sans-serif" font-size="35.2" font-weight="700" text-anchor="middle" x="412" y="253">P</text></g></g><g data-primitive="directional-arrow" data-tone="movement"><line stroke="#f7fafb" stroke-linecap="round" stroke-width="9" x1="517" x2="517" y1="515" y2="465"/><path d="M 528.375 482.5 L 517 465 L 505.625 482.5" fill="none" stroke="#f7fafb" stroke-linecap="round" stroke-linejoin="round" stroke-width="9"/></g></g></svg>
